<svg t="1592966481656" class="icon" viewBox="0 0 1024 1024" version="1.1" xmlns="http://www.w3.org/2000/svg" p-id="2910" width="200" height="200"><path d="M511.997952 64.00512c-247.409664 0-447.997952 200.574976-447.997952 448 0 247.41888 200.588288 447.988736 447.997952 447.988736 247.42912 0 448.002048-200.57088 448.002048-447.988736 0-247.425024-200.572928-448-448.002048-448z m205.896704 653.888512c-8.745984 8.748032-22.929408 8.748032-31.684608 0L511.997952 543.676416 337.787904 717.893632c-8.747008 8.748032-22.929408 8.748032-31.67744 0-8.753152-8.747008-8.753152-22.92736 0-31.67744l174.214144-174.215168-174.214144-174.219264c-8.753152-8.73984-8.753152-22.924288 0-31.675392 8.749056-8.741888 22.931456-8.741888 31.67744 0l174.214144 174.216192 158.379008-158.380032c8.745984-8.741888 22.929408-8.741888 31.666176 0 8.749056 8.751104 8.749056 22.935552 0 31.67744L543.676416 511.996928l174.21824 174.219264c8.748032 8.75008 8.748032 22.930432 0 31.67744z" p-id="2911"></path></svg>